<mxfile host="20a53cca-6000-4816-8358-fd2e11161425" modified="2020-09-13T17:21:13.876Z" agent="5.0 (Macintosh; Intel Mac OS X 10_15_6) AppleWebKit/537.36 (KHTML, like Gecko) Code/1.48.2 Chrome/78.0.3904.130 Electron/7.3.2 Safari/537.36" etag="BRXART-SNQYF0EvSGYTZ" version="13.1.3">
    <diagram id="6hGFLwfOUW9BJ-s0fimq" name="Page-1">
        <mxGraphModel dx="2412" dy="1776" grid="1" gridSize="10" guides="1" tooltips="1" connect="1" arrows="1" fold="1" page="1" pageScale="1" pageWidth="827" pageHeight="1169" math="0" shadow="0">
            <root>
                <mxCell id="0"/>
                <mxCell id="1" parent="0"/>
                <mxCell id="4" style="edgeStyle=orthogonalEdgeStyle;rounded=0;orthogonalLoop=1;jettySize=auto;html=1;exitX=0.06;exitY=1;exitDx=0;exitDy=0;exitPerimeter=0;entryX=0.5;entryY=0;entryDx=0;entryDy=0;" edge="1" parent="1" source="2" target="3">
                    <mxGeometry relative="1" as="geometry"/>
                </mxCell>
                <mxCell id="6" style="edgeStyle=orthogonalEdgeStyle;rounded=0;orthogonalLoop=1;jettySize=auto;html=1;exitX=0.395;exitY=1;exitDx=0;exitDy=0;exitPerimeter=0;entryX=0.5;entryY=0;entryDx=0;entryDy=0;" edge="1" parent="1" source="2" target="5">
                    <mxGeometry relative="1" as="geometry"/>
                </mxCell>
                <mxCell id="2" value="" style="shape=mxgraph.signs.food.drinking_water_2;html=1;fillColor=#000000;strokeColor=none;verticalLabelPosition=bottom;verticalAlign=top;align=center;" vertex="1" parent="1">
                    <mxGeometry x="564" y="10" width="76" height="98" as="geometry"/>
                </mxCell>
                <mxCell id="8" style="edgeStyle=orthogonalEdgeStyle;rounded=0;orthogonalLoop=1;jettySize=auto;html=1;exitX=0.5;exitY=1;exitDx=0;exitDy=0;entryX=0;entryY=0.75;entryDx=0;entryDy=0;" edge="1" parent="1" source="3" target="7">
                    <mxGeometry relative="1" as="geometry"/>
                </mxCell>
                <mxCell id="3" value="Cool inlet" style="rounded=1;whiteSpace=wrap;html=1;" vertex="1" parent="1">
                    <mxGeometry x="454" y="180" width="120" height="60" as="geometry"/>
                </mxCell>
                <mxCell id="13" style="edgeStyle=orthogonalEdgeStyle;rounded=0;orthogonalLoop=1;jettySize=auto;html=1;exitX=0.5;exitY=1;exitDx=0;exitDy=0;entryX=0.5;entryY=0;entryDx=0;entryDy=0;" edge="1" parent="1" source="5" target="11">
                    <mxGeometry relative="1" as="geometry">
                        <Array as="points">
                            <mxPoint x="674" y="270"/>
                            <mxPoint x="634" y="270"/>
                        </Array>
                    </mxGeometry>
                </mxCell>
                <mxCell id="18" style="edgeStyle=orthogonalEdgeStyle;rounded=0;orthogonalLoop=1;jettySize=auto;html=1;exitX=0.5;exitY=1;exitDx=0;exitDy=0;entryX=1;entryY=0.7;entryDx=0;entryDy=0;" edge="1" parent="1" source="5" target="46">
                    <mxGeometry relative="1" as="geometry">
                        <mxPoint x="824" y="290" as="targetPoint"/>
                        <Array as="points">
                            <mxPoint x="674" y="290"/>
                            <mxPoint x="890" y="290"/>
                            <mxPoint x="890" y="1060"/>
                            <mxPoint x="650" y="1060"/>
                            <mxPoint x="650" y="1025"/>
                        </Array>
                    </mxGeometry>
                </mxCell>
                <mxCell id="20" style="edgeStyle=orthogonalEdgeStyle;rounded=0;orthogonalLoop=1;jettySize=auto;html=1;exitX=0.5;exitY=1;exitDx=0;exitDy=0;entryX=0.5;entryY=0;entryDx=0;entryDy=0;" edge="1" parent="1" source="5" target="19">
                    <mxGeometry relative="1" as="geometry">
                        <Array as="points">
                            <mxPoint x="674" y="290"/>
                            <mxPoint x="794" y="290"/>
                        </Array>
                    </mxGeometry>
                </mxCell>
                <mxCell id="5" value="Water inlet" style="rounded=1;whiteSpace=wrap;html=1;" vertex="1" parent="1">
                    <mxGeometry x="614" y="180" width="120" height="60" as="geometry"/>
                </mxCell>
                <mxCell id="16" style="edgeStyle=orthogonalEdgeStyle;rounded=0;orthogonalLoop=1;jettySize=auto;html=1;exitX=1;exitY=0.75;exitDx=0;exitDy=0;entryX=1;entryY=0.5;entryDx=0;entryDy=0;" edge="1" parent="1" source="7" target="15">
                    <mxGeometry relative="1" as="geometry"/>
                </mxCell>
                <mxCell id="7" value="Cooler" style="shape=process;whiteSpace=wrap;html=1;backgroundOutline=1;rotation=90;" vertex="1" parent="1">
                    <mxGeometry x="494" y="460" width="120" height="60" as="geometry"/>
                </mxCell>
                <mxCell id="12" style="edgeStyle=orthogonalEdgeStyle;rounded=0;orthogonalLoop=1;jettySize=auto;html=1;exitX=0.5;exitY=1;exitDx=0;exitDy=0;entryX=0;entryY=0.25;entryDx=0;entryDy=0;" edge="1" parent="1" source="11" target="7">
                    <mxGeometry relative="1" as="geometry"/>
                </mxCell>
                <mxCell id="11" value="Cool valve" style="rounded=1;whiteSpace=wrap;html=1;" vertex="1" parent="1">
                    <mxGeometry x="574" y="330" width="120" height="60" as="geometry"/>
                </mxCell>
                <mxCell id="15" value="Out" style="triangle;whiteSpace=wrap;html=1;" vertex="1" parent="1">
                    <mxGeometry x="314" y="515" width="60" height="80" as="geometry"/>
                </mxCell>
                <mxCell id="22" style="edgeStyle=orthogonalEdgeStyle;rounded=0;orthogonalLoop=1;jettySize=auto;html=1;exitX=0.5;exitY=1;exitDx=0;exitDy=0;entryX=0.5;entryY=0;entryDx=0;entryDy=0;endArrow=none;endFill=0;" edge="1" parent="1" source="19" target="21">
                    <mxGeometry relative="1" as="geometry">
                        <Array as="points">
                            <mxPoint x="794" y="670"/>
                            <mxPoint x="70" y="670"/>
                        </Array>
                    </mxGeometry>
                </mxCell>
                <mxCell id="29" style="edgeStyle=orthogonalEdgeStyle;rounded=0;orthogonalLoop=1;jettySize=auto;html=1;exitX=0.5;exitY=1;exitDx=0;exitDy=0;entryX=0.5;entryY=0;entryDx=0;entryDy=0;" edge="1" parent="1" source="19" target="28">
                    <mxGeometry relative="1" as="geometry"/>
                </mxCell>
                <mxCell id="36" style="edgeStyle=orthogonalEdgeStyle;rounded=0;orthogonalLoop=1;jettySize=auto;html=1;exitX=0.5;exitY=1;exitDx=0;exitDy=0;entryX=0.5;entryY=0;entryDx=0;entryDy=0;" edge="1" parent="1" source="19" target="35">
                    <mxGeometry relative="1" as="geometry">
                        <Array as="points">
                            <mxPoint x="794" y="670"/>
                            <mxPoint x="707" y="670"/>
                        </Array>
                    </mxGeometry>
                </mxCell>
                <mxCell id="37" style="edgeStyle=orthogonalEdgeStyle;rounded=0;orthogonalLoop=1;jettySize=auto;html=1;exitX=0.5;exitY=1;exitDx=0;exitDy=0;entryX=0.5;entryY=0;entryDx=0;entryDy=0;" edge="1" parent="1" source="19" target="34">
                    <mxGeometry relative="1" as="geometry">
                        <Array as="points">
                            <mxPoint x="794" y="670"/>
                            <mxPoint x="637" y="670"/>
                        </Array>
                    </mxGeometry>
                </mxCell>
                <mxCell id="38" style="edgeStyle=orthogonalEdgeStyle;rounded=0;orthogonalLoop=1;jettySize=auto;html=1;exitX=0.5;exitY=1;exitDx=0;exitDy=0;entryX=0.5;entryY=0;entryDx=0;entryDy=0;" edge="1" parent="1" source="19" target="33">
                    <mxGeometry relative="1" as="geometry">
                        <Array as="points">
                            <mxPoint x="794" y="670"/>
                            <mxPoint x="567" y="670"/>
                        </Array>
                    </mxGeometry>
                </mxCell>
                <mxCell id="39" style="edgeStyle=orthogonalEdgeStyle;rounded=0;orthogonalLoop=1;jettySize=auto;html=1;exitX=0.5;exitY=1;exitDx=0;exitDy=0;entryX=0.5;entryY=0;entryDx=0;entryDy=0;" edge="1" parent="1" source="19" target="32">
                    <mxGeometry relative="1" as="geometry">
                        <Array as="points">
                            <mxPoint x="794" y="670"/>
                            <mxPoint x="497" y="670"/>
                        </Array>
                    </mxGeometry>
                </mxCell>
                <mxCell id="40" style="edgeStyle=orthogonalEdgeStyle;rounded=0;orthogonalLoop=1;jettySize=auto;html=1;exitX=0.5;exitY=1;exitDx=0;exitDy=0;entryX=1;entryY=0.25;entryDx=0;entryDy=0;" edge="1" parent="1" source="19" target="7">
                    <mxGeometry relative="1" as="geometry">
                        <Array as="points">
                            <mxPoint x="794" y="600"/>
                            <mxPoint x="569" y="600"/>
                        </Array>
                    </mxGeometry>
                </mxCell>
                <mxCell id="43" style="edgeStyle=orthogonalEdgeStyle;rounded=0;orthogonalLoop=1;jettySize=auto;html=1;exitX=0.5;exitY=1;exitDx=0;exitDy=0;entryX=0.5;entryY=0;entryDx=0;entryDy=0;endArrow=none;endFill=0;" edge="1" parent="1" source="19" target="42">
                    <mxGeometry relative="1" as="geometry">
                        <Array as="points">
                            <mxPoint x="794" y="670"/>
                            <mxPoint x="374" y="670"/>
                        </Array>
                    </mxGeometry>
                </mxCell>
                <mxCell id="53" style="edgeStyle=orthogonalEdgeStyle;rounded=0;orthogonalLoop=1;jettySize=auto;html=1;exitX=0.5;exitY=1;exitDx=0;exitDy=0;entryX=0.5;entryY=0;entryDx=0;entryDy=0;" edge="1" parent="1" source="19" target="52">
                    <mxGeometry relative="1" as="geometry">
                        <Array as="points">
                            <mxPoint x="794" y="670"/>
                            <mxPoint x="224" y="670"/>
                        </Array>
                    </mxGeometry>
                </mxCell>
                <mxCell id="19" value="Boil inlet" style="rounded=1;whiteSpace=wrap;html=1;" vertex="1" parent="1">
                    <mxGeometry x="734" y="360" width="120" height="60" as="geometry"/>
                </mxCell>
                <mxCell id="21" value="Mash return" style="rounded=1;whiteSpace=wrap;html=1;" vertex="1" parent="1">
                    <mxGeometry x="10" y="730" width="120" height="60" as="geometry"/>
                </mxCell>
                <mxCell id="57" style="edgeStyle=orthogonalEdgeStyle;rounded=0;orthogonalLoop=1;jettySize=auto;html=1;exitX=0.5;exitY=0;exitDx=0;exitDy=0;entryX=0.5;entryY=1;entryDx=0;entryDy=0;" edge="1" parent="1" source="23" target="21">
                    <mxGeometry relative="1" as="geometry"/>
                </mxCell>
                <mxCell id="23" value="Mash pump" style="rounded=1;whiteSpace=wrap;html=1;" vertex="1" parent="1">
                    <mxGeometry x="10" y="835" width="120" height="60" as="geometry"/>
                </mxCell>
                <mxCell id="56" style="edgeStyle=orthogonalEdgeStyle;rounded=0;orthogonalLoop=1;jettySize=auto;html=1;exitX=0.15;exitY=0.95;exitDx=0;exitDy=0;exitPerimeter=0;entryX=0.5;entryY=1;entryDx=0;entryDy=0;" edge="1" parent="1" source="25" target="23">
                    <mxGeometry relative="1" as="geometry"/>
                </mxCell>
                <mxCell id="25" value="Mash&lt;br&gt;Tank" style="shape=cylinder;whiteSpace=wrap;html=1;boundedLbl=1;backgroundOutline=1;" vertex="1" parent="1">
                    <mxGeometry x="170" y="850" width="100" height="150" as="geometry"/>
                </mxCell>
                <mxCell id="31" style="edgeStyle=orthogonalEdgeStyle;rounded=0;orthogonalLoop=1;jettySize=auto;html=1;exitX=0.5;exitY=1;exitDx=0;exitDy=0;entryX=1;entryY=0.5;entryDx=0;entryDy=0;" edge="1" parent="1" source="28" target="30">
                    <mxGeometry relative="1" as="geometry"/>
                </mxCell>
                <mxCell id="28" value="Outlet valve" style="rounded=1;whiteSpace=wrap;html=1;" vertex="1" parent="1">
                    <mxGeometry x="764" y="830" width="120" height="60" as="geometry"/>
                </mxCell>
                <mxCell id="30" value="Out" style="triangle;whiteSpace=wrap;html=1;" vertex="1" parent="1">
                    <mxGeometry x="734" y="930" width="60" height="80" as="geometry"/>
                </mxCell>
                <mxCell id="63" style="edgeStyle=orthogonalEdgeStyle;rounded=0;orthogonalLoop=1;jettySize=auto;html=1;exitX=0.5;exitY=1;exitDx=0;exitDy=0;entryX=0.068;entryY=0.095;entryDx=0;entryDy=0;entryPerimeter=0;startArrow=none;startFill=0;endArrow=classicThin;endFill=1;" edge="1" parent="1" source="32" target="46">
                    <mxGeometry relative="1" as="geometry"/>
                </mxCell>
                <mxCell id="32" value="Hop 1" style="rounded=1;whiteSpace=wrap;html=1;" vertex="1" parent="1">
                    <mxGeometry x="467" y="740" width="60" height="60" as="geometry"/>
                </mxCell>
                <mxCell id="64" style="edgeStyle=orthogonalEdgeStyle;rounded=0;orthogonalLoop=1;jettySize=auto;html=1;exitX=0.5;exitY=1;exitDx=0;exitDy=0;entryX=0.344;entryY=-0.001;entryDx=0;entryDy=0;entryPerimeter=0;startArrow=none;startFill=0;endArrow=classicThin;endFill=1;" edge="1" parent="1" source="33" target="46">
                    <mxGeometry relative="1" as="geometry">
                        <Array as="points">
                            <mxPoint x="567" y="830"/>
                            <mxPoint x="524" y="830"/>
                        </Array>
                    </mxGeometry>
                </mxCell>
                <mxCell id="33" value="Hop 2" style="rounded=1;whiteSpace=wrap;html=1;" vertex="1" parent="1">
                    <mxGeometry x="537" y="740" width="60" height="60" as="geometry"/>
                </mxCell>
                <mxCell id="65" style="edgeStyle=orthogonalEdgeStyle;rounded=0;orthogonalLoop=1;jettySize=auto;html=1;exitX=0.5;exitY=1;exitDx=0;exitDy=0;entryX=0.689;entryY=0.008;entryDx=0;entryDy=0;entryPerimeter=0;startArrow=none;startFill=0;endArrow=classicThin;endFill=1;" edge="1" parent="1" source="34" target="46">
                    <mxGeometry relative="1" as="geometry">
                        <Array as="points">
                            <mxPoint x="637" y="860"/>
                            <mxPoint x="559" y="860"/>
                        </Array>
                    </mxGeometry>
                </mxCell>
                <mxCell id="34" value="Hop 3" style="rounded=1;whiteSpace=wrap;html=1;" vertex="1" parent="1">
                    <mxGeometry x="607" y="740" width="60" height="60" as="geometry"/>
                </mxCell>
                <mxCell id="66" style="edgeStyle=orthogonalEdgeStyle;rounded=0;orthogonalLoop=1;jettySize=auto;html=1;exitX=0.5;exitY=1;exitDx=0;exitDy=0;entryX=0.923;entryY=0.091;entryDx=0;entryDy=0;entryPerimeter=0;startArrow=none;startFill=0;endArrow=classicThin;endFill=1;" edge="1" parent="1" source="35" target="46">
                    <mxGeometry relative="1" as="geometry">
                        <Array as="points">
                            <mxPoint x="707" y="890"/>
                            <mxPoint x="582" y="890"/>
                        </Array>
                    </mxGeometry>
                </mxCell>
                <mxCell id="35" value="Hop 4" style="rounded=1;whiteSpace=wrap;html=1;" vertex="1" parent="1">
                    <mxGeometry x="677" y="740" width="60" height="60" as="geometry"/>
                </mxCell>
                <mxCell id="42" value="Boil return" style="rounded=1;whiteSpace=wrap;html=1;" vertex="1" parent="1">
                    <mxGeometry x="314" y="730" width="120" height="60" as="geometry"/>
                </mxCell>
                <mxCell id="62" style="edgeStyle=orthogonalEdgeStyle;rounded=0;orthogonalLoop=1;jettySize=auto;html=1;exitX=0.5;exitY=0;exitDx=0;exitDy=0;entryX=0.5;entryY=1;entryDx=0;entryDy=0;endArrow=classicThin;endFill=1;" edge="1" parent="1" source="44" target="42">
                    <mxGeometry relative="1" as="geometry"/>
                </mxCell>
                <mxCell id="44" value="Boil pump" style="rounded=1;whiteSpace=wrap;html=1;" vertex="1" parent="1">
                    <mxGeometry x="314" y="820" width="120" height="60" as="geometry"/>
                </mxCell>
                <mxCell id="61" style="edgeStyle=orthogonalEdgeStyle;rounded=0;orthogonalLoop=1;jettySize=auto;html=1;exitX=0.15;exitY=0.95;exitDx=0;exitDy=0;exitPerimeter=0;entryX=0.5;entryY=1;entryDx=0;entryDy=0;endArrow=classicThin;endFill=1;" edge="1" parent="1" source="46" target="44">
                    <mxGeometry relative="1" as="geometry"/>
                </mxCell>
                <mxCell id="46" value="Boil&lt;br&gt;Tank" style="shape=cylinder;whiteSpace=wrap;html=1;boundedLbl=1;backgroundOutline=1;" vertex="1" parent="1">
                    <mxGeometry x="490" y="920" width="100" height="150" as="geometry"/>
                </mxCell>
                <mxCell id="59" style="edgeStyle=orthogonalEdgeStyle;rounded=0;orthogonalLoop=1;jettySize=auto;html=1;exitX=0.5;exitY=1;exitDx=0;exitDy=0;entryX=1;entryY=0.5;entryDx=0;entryDy=0;endArrow=classicThin;endFill=1;" edge="1" parent="1" source="52" target="25">
                    <mxGeometry relative="1" as="geometry"/>
                </mxCell>
                <mxCell id="52" value="Mash inlet" style="rounded=1;whiteSpace=wrap;html=1;" vertex="1" parent="1">
                    <mxGeometry x="164" y="730" width="120" height="60" as="geometry"/>
                </mxCell>
            </root>
        </mxGraphModel>
    </diagram>
</mxfile>
